<svg width="256" height="256" viewBox="0 0 256 256" fill="none" xmlns="http://www.w3.org/2000/svg"><path fill-rule="evenodd" clip-rule="evenodd" d="M113.323 37.013a23.979 23.979 0 0 1 29.355 0l72 55.712a24.02 24.02 0 0 1 9.323 18.997v88.256A24.011 24.011 0 0 1 200 224H56a24.011 24.011 0 0 1-24-24.021v-88.256a24.016 24.016 0 0 1 9.323-18.997l72-55.712Zm-9.813 120.213a8 8 0 1 0-15.019 5.547 46.261 46.261 0 0 0 15.467 21.077A40.011 40.011 0 0 0 128 192a40 40 0 0 0 24.043-8.149 46.251 46.251 0 0 0 15.467-21.077 8 8 0 1 0-15.019-5.547 30.293 30.293 0 0 1-10.048 13.824C138.07 174.326 133.056 176 128 176c-5.045 0-10.069-1.675-14.443-4.949a30.261 30.261 0 0 1-10.048-13.824Z" fill="#3A52EE"/></svg>
